<svg width="79" height="24" viewBox="0 0 79 24" fill="none" xmlns="http://www.w3.org/2000/svg">
<path fill-rule="evenodd" clip-rule="evenodd" d="M24.0672 4.95766C24.7328 4.95766 25.3072 5.07603 25.7903 5.30919C26.2754 5.5444 26.6764 5.86123 26.9974 6.2597C27.3144 6.66021 27.5503 7.12858 27.7026 7.6648C27.8538 8.20307 27.9297 8.78113 27.9297 9.40052C27.9297 10.351 27.7549 11.25 27.401 12.0969C27.0477 12.9449 26.5677 13.6806 25.9574 14.3082C25.3477 14.9352 24.6277 15.4291 23.7974 15.7939C22.9682 16.1597 22.0672 16.3418 21.0995 16.3418C20.9744 16.3418 20.7544 16.3388 20.4436 16.3316C20.1328 16.3255 19.7754 16.2939 19.3754 16.2398C18.9728 16.1842 18.5472 16.1015 18.0974 15.9908C17.6482 15.8821 17.2215 15.7296 16.8195 15.5362L20.4123 0.516845L23.6303 0.0204163L22.3441 5.35001C22.6195 5.22654 22.8969 5.13062 23.1738 5.06123C23.4523 4.99389 23.7492 4.95766 24.0672 4.95766ZM21.3682 13.8026C21.8528 13.8026 22.3092 13.6842 22.7385 13.451C23.1687 13.2184 23.54 12.9036 23.8508 12.5112C24.1615 12.1179 24.4082 11.674 24.5877 11.1781C24.7672 10.6827 24.858 10.1658 24.858 9.62756C24.858 8.96684 24.7472 8.45103 24.5256 8.07858C24.3041 7.70715 23.8949 7.52093 23.3 7.52093C23.1051 7.52093 22.8538 7.55766 22.5426 7.62348C22.2303 7.6944 21.9508 7.8398 21.7 8.05868L20.3303 13.7194C20.4128 13.7332 20.4862 13.7475 20.5482 13.7602C20.6092 13.774 20.6764 13.7842 20.7436 13.7913C20.8149 13.7995 20.8959 13.8031 20.9938 13.8031C21.0918 13.8031 21.2159 13.8026 21.3682 13.8026Z" fill="#889099"/>
<path fill-rule="evenodd" clip-rule="evenodd" d="M31.2682 16.0536H28.1944L30.7903 5.18673H33.8851L31.2682 16.0536ZM32.7636 3.86377C32.3344 3.86377 31.9456 3.73622 31.6005 3.48214C31.2523 3.22908 31.08 2.83928 31.08 2.31428C31.08 2.02551 31.139 1.75408 31.2559 1.49898C31.3744 1.24387 31.5298 1.02347 31.7241 0.837242C31.9185 0.652037 32.1431 0.504078 32.3985 0.392344C32.6554 0.28265 32.9287 0.228058 33.22 0.228058C33.6487 0.228058 34.0359 0.355099 34.3821 0.60969C34.7272 0.865303 34.901 1.2551 34.901 1.77704C34.901 2.06683 34.8426 2.33928 34.7241 2.59438C34.6067 2.84949 34.4518 3.06887 34.2574 3.25612C34.0651 3.44132 33.838 3.58877 33.5831 3.69949C33.3262 3.81071 33.0544 3.86377 32.7636 3.86377Z" fill="#889099"/>
<path fill-rule="evenodd" clip-rule="evenodd" d="M36.5779 2.48062L39.7974 1.98419L39.0067 5.18674H42.4544L41.8318 7.70664H38.4046L37.4918 11.5082C37.4077 11.825 37.36 12.1209 37.3467 12.3954C37.3318 12.6719 37.3667 12.9092 37.4497 13.1087C37.5323 13.3087 37.681 13.4628 37.8964 13.5725C38.1108 13.6832 38.4179 13.7388 38.82 13.7388C39.1513 13.7388 39.4744 13.7077 39.7867 13.6449C40.0969 13.5842 40.4118 13.4985 40.7303 13.3867L40.9595 15.7434C40.5441 15.8949 40.0944 16.0255 39.6097 16.1352C39.1246 16.2459 38.5497 16.2995 37.8856 16.2995C36.9308 16.2995 36.1903 16.1592 35.6631 15.8781C35.1364 15.5949 34.7641 15.2087 34.541 14.7194C34.321 14.2322 34.2231 13.6699 34.2508 13.0367C34.2795 12.402 34.3754 11.7347 34.541 11.0322L36.5779 2.48062Z" fill="#889099"/>
<path fill-rule="evenodd" clip-rule="evenodd" d="M42.319 11.7158C42.319 10.7796 42.4713 9.89747 42.7759 9.07042C43.0795 8.24338 43.5174 7.52042 44.0856 6.89951C44.6518 6.28165 45.341 5.79236 46.1523 5.43369C46.96 5.07604 47.8641 4.89594 48.861 4.89594C49.4846 4.89594 50.042 4.9541 50.5323 5.07196C51.0246 5.19032 51.4703 5.34389 51.8728 5.53624L50.8128 7.93471C50.5359 7.82298 50.2482 7.72451 49.9513 7.63471C49.6538 7.54389 49.2908 7.50002 48.8615 7.50002C47.8359 7.50002 47.0246 7.85155 46.421 8.55257C45.82 9.25461 45.5169 10.199 45.5169 11.3842C45.5169 12.0868 45.6692 12.6541 45.9749 13.0888C46.279 13.523 46.8405 13.7388 47.6564 13.7388C48.059 13.7388 48.4472 13.697 48.8195 13.6153C49.1944 13.5327 49.5251 13.4291 49.8169 13.3056L50.0461 15.7638C49.6574 15.9143 49.2287 16.05 48.7585 16.1684C48.2872 16.2832 47.7261 16.3419 47.0754 16.3419C46.2169 16.3419 45.4897 16.2174 44.8954 15.9709C44.3005 15.7209 43.8087 15.3888 43.4215 14.9684C43.0323 14.547 42.7528 14.0546 42.58 13.4898C42.4067 12.9271 42.319 12.3342 42.319 11.7158H42.319Z" fill="#889099"/>
<path fill-rule="evenodd" clip-rule="evenodd" d="M55.9723 16.3429C55.2385 16.3429 54.6015 16.2322 54.061 16.0123C53.5221 15.7918 53.0759 15.4832 52.7226 15.0827C52.3692 14.6842 52.1041 14.2117 51.9231 13.6679C51.7415 13.1245 51.6549 12.522 51.6549 11.8623C51.6549 11.0342 51.7887 10.2066 52.0585 9.38113C52.3272 8.5546 52.7256 7.81175 53.2539 7.15103C53.7774 6.4893 54.4231 5.94848 55.1841 5.52654C55.9436 5.10818 56.818 4.89746 57.7995 4.89746C58.5195 4.89746 59.1539 5.00869 59.7015 5.22858C60.2467 5.44899 60.6959 5.75971 61.0513 6.15818C61.4026 6.55869 61.6697 7.02909 61.8492 7.57399C62.0303 8.11634 62.119 8.72042 62.119 9.38062C62.119 10.2061 61.9872 11.0337 61.7256 11.8617C61.4636 12.6852 61.0754 13.4301 60.5626 14.0918C60.0508 14.7526 59.4108 15.2929 58.6421 15.7133C57.8733 16.1327 56.9826 16.3429 55.9723 16.3429ZM57.5082 7.50103C57.0523 7.50103 56.6497 7.63266 56.3046 7.89287C55.9585 8.15562 55.6677 8.48624 55.4333 8.88471C55.1964 9.28471 55.0205 9.72246 54.9021 10.1964C54.7846 10.6725 54.7267 11.122 54.7267 11.5495C54.7267 12.2388 54.8385 12.7755 55.058 13.1623C55.281 13.5464 55.681 13.7398 56.2631 13.7398C56.7205 13.7398 57.121 13.6092 57.4682 13.3464C57.8123 13.0857 58.1031 12.7551 58.3395 12.3556C58.5749 11.9577 58.7523 11.5189 58.8708 11.0439C58.9872 10.5694 59.0462 10.1174 59.0462 9.69083C59.0462 9.00307 58.9349 8.46532 58.7133 8.07909C58.4918 7.69389 58.0897 7.50103 57.5082 7.50103Z" fill="#889099"/>
<path fill-rule="evenodd" clip-rule="evenodd" d="M65.4677 16.0536H62.3918L64.9877 5.18673H68.0841L65.4677 16.0536ZM66.961 3.86377C66.5323 3.86377 66.1436 3.73622 65.799 3.48214C65.4523 3.22908 65.2785 2.83928 65.2785 2.31428C65.2785 2.02551 65.3379 1.75408 65.4554 1.49898C65.5728 1.24387 65.7287 1.02347 65.9231 0.837242C66.1164 0.652037 66.3431 0.504078 66.5979 0.392344C66.8533 0.28265 67.1267 0.228058 67.4174 0.228058C67.8472 0.228058 68.2354 0.355099 68.581 0.60969C68.9272 0.865303 69.1015 1.2551 69.1015 1.77704C69.1015 2.06683 69.0395 2.33928 68.9231 2.59438C68.8067 2.84949 68.6513 3.06887 68.4574 3.25612C68.2626 3.44132 68.039 3.58877 67.7836 3.69949C67.5261 3.81071 67.2533 3.86377 66.961 3.86377Z" fill="#889099"/>
<path fill-rule="evenodd" clip-rule="evenodd" d="M70.2974 5.68216C70.5308 5.61431 70.7913 5.53267 71.0749 5.4439C71.3595 5.35512 71.6769 5.27247 72.0318 5.19798C72.3831 5.12145 72.779 5.05971 73.2149 5.01073C73.6508 4.96175 74.1467 4.93777 74.699 4.93777C76.3195 4.93777 77.4374 5.40716 78.0543 6.3439C78.6702 7.28063 78.7774 8.56226 78.3769 10.1862L76.9636 16.0536H73.8697L75.24 10.3097C75.3231 9.95104 75.3892 9.6041 75.4374 9.26533C75.4867 8.93012 75.4836 8.6342 75.4267 8.37808C75.3728 8.12502 75.2436 7.91839 75.0441 7.75767C74.841 7.599 74.5343 7.52043 74.1184 7.52043C73.7179 7.52043 73.3102 7.56328 72.8938 7.64594L70.879 16.0536H67.7841L70.2974 5.68216Z" fill="#889099"/>
<path fill-rule="evenodd" clip-rule="evenodd" d="M33.1605 22.5301L32.5574 23.6199H31.9051C32.3646 22.7954 32.8128 22.0362 33.2497 21.3424C33.6867 20.6485 34.1185 19.9934 34.5451 19.377H35.1297C35.1913 19.6832 35.2477 19.9929 35.299 20.3046C35.3502 20.6168 35.4005 20.9444 35.4497 21.2872C35.499 21.6301 35.5461 21.9939 35.5913 22.3776C35.6364 22.7612 35.6836 23.175 35.7328 23.6204H35.1297C35.1092 23.4367 35.0908 23.252 35.0744 23.0663C35.0579 22.8806 35.0395 22.702 35.019 22.5306H33.1605V22.5301ZM34.9636 22.052C34.9308 21.7219 34.8928 21.3929 34.8497 21.0663C34.8067 20.7398 34.7564 20.4031 34.699 20.0561C34.5554 20.2643 34.3769 20.5332 34.1636 20.8612C33.9502 21.1903 33.7082 21.5867 33.4374 22.052H34.9636Z" fill="#889099"/>
<path fill-rule="evenodd" clip-rule="evenodd" d="M37.9138 23.7112C37.6472 23.7112 37.4123 23.6724 37.2092 23.5949C37.0061 23.5173 36.8369 23.4071 36.7015 23.2643C36.5661 23.1219 36.4646 22.949 36.3969 22.7469C36.3292 22.5449 36.2954 22.3173 36.2954 22.0643C36.2954 21.6969 36.3538 21.3459 36.4708 21.0112C36.5877 20.677 36.7538 20.3811 36.9692 20.124C37.1846 19.8668 37.4441 19.6617 37.7477 19.5082C38.0513 19.3551 38.3892 19.2786 38.7631 19.2786C39.0831 19.2786 39.3385 19.3112 39.5292 19.3765C39.72 19.4418 39.8564 19.5031 39.9385 19.5602L39.6923 20.05C39.5974 19.9888 39.4697 19.9306 39.3077 19.8755C39.1456 19.8209 38.9538 19.7929 38.7323 19.7929C38.4492 19.7929 38.1949 19.8592 37.9692 19.9923C37.7436 20.125 37.5528 20.2964 37.3969 20.5066C37.241 20.7168 37.122 20.9536 37.04 21.2168C36.9579 21.4801 36.9169 21.7403 36.9169 21.9974C36.9169 22.7934 37.2636 23.1913 37.9569 23.1913C38.1046 23.1913 38.2369 23.1806 38.3538 23.1602C38.4708 23.1403 38.5744 23.1163 38.6646 23.0898C38.7549 23.0633 38.8349 23.0342 38.9046 23.001C38.9744 22.9684 39.0359 22.9398 39.0892 22.9153L39.1631 23.4296C39.1138 23.4582 39.0492 23.4888 38.9692 23.5214C38.8892 23.5541 38.7959 23.5847 38.6892 23.6138C38.5826 23.6423 38.4636 23.6658 38.3323 23.6842C38.201 23.7025 38.0615 23.7112 37.9138 23.7112Z" fill="#889099"/>
<path fill-rule="evenodd" clip-rule="evenodd" d="M41.3713 23.7112C41.1046 23.7112 40.8697 23.6724 40.6667 23.5949C40.4636 23.5173 40.2943 23.4071 40.159 23.2643C40.0236 23.1219 39.922 22.949 39.8543 22.7469C39.7867 22.5449 39.7528 22.3173 39.7528 22.0643C39.7528 21.6969 39.8113 21.3459 39.9282 21.0112C40.0451 20.677 40.2113 20.3811 40.4267 20.124C40.642 19.8668 40.9015 19.6617 41.2051 19.5082C41.5087 19.3551 41.8467 19.2786 42.2205 19.2786C42.5405 19.2786 42.7959 19.3112 42.9867 19.3765C43.1774 19.4418 43.3138 19.5031 43.3959 19.5602L43.1497 20.05C43.0549 19.9888 42.9272 19.9306 42.7651 19.8755C42.6031 19.8209 42.4113 19.7929 42.1897 19.7929C41.9067 19.7929 41.6523 19.8592 41.4267 19.9923C41.201 20.125 41.0102 20.2964 40.8543 20.5066C40.6984 20.7168 40.5795 20.9536 40.4974 21.2168C40.4154 21.4801 40.3743 21.7403 40.3743 21.9974C40.3743 22.7934 40.721 23.1913 41.4143 23.1913C41.562 23.1913 41.6943 23.1806 41.8113 23.1602C41.9282 23.1403 42.0318 23.1163 42.122 23.0898C42.2123 23.0633 42.2923 23.0342 42.362 23.001C42.4318 22.9684 42.4933 22.9398 42.5467 22.9153L42.6205 23.4296C42.5713 23.4582 42.5067 23.4888 42.4267 23.5214C42.3467 23.5541 42.2533 23.5847 42.1467 23.6138C42.04 23.6423 41.921 23.6658 41.7897 23.6842C41.6584 23.7025 41.519 23.7112 41.3713 23.7112Z" fill="#889099"/>
<path fill-rule="evenodd" clip-rule="evenodd" d="M43.0236 23.6194L44.0451 19.3765H46.5621L46.4451 19.8724H44.519L44.2113 21.152H45.9221L45.8051 21.6357H44.1005L43.7374 23.1235H45.8051L45.6882 23.6194H43.0236H43.0236Z" fill="#889099"/>
<path fill-rule="evenodd" clip-rule="evenodd" d="M48.3436 19.3337C48.84 19.3337 49.2144 19.4276 49.4667 19.6153C49.719 19.8031 49.8451 20.0765 49.8451 20.4357C49.8451 20.7133 49.7928 20.9536 49.6882 21.1551C49.5836 21.3571 49.4349 21.5235 49.2421 21.6546C49.0492 21.7852 48.8174 21.8816 48.5467 21.9449C48.2759 22.0082 47.9744 22.0403 47.6421 22.0403H47.2174L46.8359 23.6199H46.239L47.2482 19.4321C47.4205 19.3913 47.6031 19.3648 47.7959 19.3526C47.9887 19.3398 48.1713 19.3337 48.3436 19.3337ZM48.2698 19.8357C47.9785 19.8357 47.8021 19.8439 47.7405 19.8602L47.3344 21.5439H47.7221C47.8944 21.5439 48.0708 21.5291 48.2513 21.498C48.4318 21.4674 48.5939 21.4133 48.7374 21.3362C48.881 21.2587 48.999 21.1515 49.0913 21.0143C49.1836 20.8776 49.2298 20.7015 49.2298 20.4852C49.2298 20.2526 49.1436 20.0862 48.9713 19.9857C48.799 19.8857 48.5651 19.8357 48.2698 19.8357Z" fill="#889099"/>
<path fill-rule="evenodd" clip-rule="evenodd" d="M53.4856 19.3765L53.3687 19.8724H52.0826L51.178 23.6194H50.581L51.4856 19.8724H50.1995L50.3164 19.3765H53.4856Z" fill="#889099"/>
<path fill-rule="evenodd" clip-rule="evenodd" d="M52.9318 23.6194L53.9533 19.3765H56.4703L56.3533 19.8724H54.4272L54.1195 21.152H55.8303L55.7133 21.6357H54.0087L53.6456 23.1235H55.7133L55.5964 23.6194H52.9318H52.9318Z" fill="#889099"/>
<path fill-rule="evenodd" clip-rule="evenodd" d="M58.2426 19.3337C58.8744 19.3337 59.3461 19.4816 59.6579 19.7776C59.9697 20.0735 60.1256 20.4725 60.1256 20.9745C60.1256 21.3255 60.0702 21.6633 59.9595 21.9873C59.8487 22.3123 59.6764 22.5985 59.4426 22.848C59.2087 23.0964 58.9102 23.2949 58.5472 23.4418C58.1841 23.5888 57.7502 23.6623 57.2456 23.6623C57.0733 23.6623 56.8867 23.6541 56.6856 23.6378C56.4846 23.6214 56.3082 23.5929 56.1564 23.552L57.1472 19.4316C57.3195 19.3908 57.502 19.3643 57.6949 19.352C57.8877 19.3398 58.0702 19.3337 58.2426 19.3337ZM58.1933 19.8357C57.8856 19.8357 57.701 19.8439 57.6395 19.8602L56.8518 23.1296C56.8846 23.1378 56.94 23.1449 57.0179 23.151C57.0959 23.1571 57.2231 23.1602 57.3995 23.1602C57.7236 23.1602 58.0159 23.1066 58.2764 22.9985C58.5369 22.8903 58.7574 22.7393 58.9379 22.5449C59.1185 22.351 59.2579 22.1209 59.3564 21.8536C59.4549 21.5862 59.5041 21.2934 59.5041 20.975C59.5041 20.6158 59.3995 20.3362 59.1902 20.1357C58.981 19.9362 58.6487 19.8357 58.1933 19.8357Z" fill="#889099"/>
<path fill-rule="evenodd" clip-rule="evenodd" d="M64.7226 23.6194H64.1257L64.5995 21.648H62.6241L62.1503 23.6194H61.5533L62.5749 19.3765H63.1718L62.741 21.152H64.7169L65.1477 19.3765H65.7446L64.7226 23.6194Z" fill="#889099"/>
<path fill-rule="evenodd" clip-rule="evenodd" d="M65.6641 23.6194L66.6856 19.3765H69.2026L69.0851 19.8724H67.159L66.8513 21.152H68.562L68.4446 21.6357H66.74L66.3774 23.1235H68.4446L68.3272 23.6194H65.6641H65.6641Z" fill="#889099"/>
<path fill-rule="evenodd" clip-rule="evenodd" d="M70.9841 19.3337C71.4395 19.3337 71.8005 19.4255 72.0672 19.6092C72.3338 19.7929 72.4667 20.0623 72.4667 20.4168C72.4667 20.776 72.3615 21.0776 72.1503 21.3204C71.939 21.5633 71.6426 21.7378 71.261 21.8434C71.3103 21.9296 71.3677 22.0388 71.4333 22.1714C71.499 22.3041 71.5667 22.451 71.6364 22.6123C71.7056 22.773 71.7738 22.9408 71.8395 23.1138C71.9051 23.2878 71.9621 23.4556 72.0118 23.6189H71.4026C71.3456 23.4638 71.2856 23.3066 71.2241 23.1475C71.1631 22.9883 71.1 22.8352 71.0369 22.6883C70.9728 22.5413 70.9097 22.4036 70.8456 22.275C70.7826 22.1464 70.7236 22.0327 70.6703 21.9352C70.6169 21.9393 70.5636 21.9424 70.5103 21.9444C70.4569 21.9464 70.4041 21.9475 70.3503 21.9475H69.8764L69.4764 23.6189H68.8795L69.8892 19.4311C70.0615 19.3903 70.2436 19.3638 70.4369 19.3515C70.6292 19.3398 70.8118 19.3337 70.9841 19.3337ZM70.9103 19.8357C70.619 19.8357 70.4426 19.8439 70.3805 19.8602L69.9928 21.4648H70.3564C70.5246 21.4648 70.6969 21.4526 70.8733 21.4281C71.0497 21.4036 71.2108 21.3556 71.3559 21.2842C71.5015 21.2128 71.6205 21.1128 71.7128 20.9842C71.8051 20.8556 71.8518 20.6852 71.8518 20.473C71.8518 20.2444 71.7646 20.0811 71.5903 19.9832C71.4159 19.8847 71.1887 19.8357 70.9103 19.8357Z" fill="#889099"/>
<path fill-rule="evenodd" clip-rule="evenodd" d="M72.5123 23.6194L73.5338 19.3765H76.0508L75.9333 19.8724H74.0072L73.6995 21.152H75.4102L75.2928 21.6357H73.5882L73.2256 23.1235H75.2928L75.1754 23.6194H72.5123H72.5123Z" fill="#889099"/>
<path fill-rule="evenodd" clip-rule="evenodd" d="M8.22769 16.3418C12.7576 16.3418 16.4297 12.6884 16.4297 8.18163C16.4297 3.67487 12.7576 0.0214233 8.22769 0.0214233C3.69782 0.0214233 0.0256348 3.67487 0.0256348 8.18163C0.0256348 12.6884 3.69782 16.3418 8.22769 16.3418ZM10.0395 4.95867C11.1759 5.34846 12.0072 5.93214 11.8441 7.01836C11.7256 7.81377 11.2826 8.19846 10.6938 8.33316C11.5015 8.75152 11.9128 9.39285 11.521 10.5056C11.0354 11.8872 9.88102 12.0036 8.34564 11.7148L7.97282 13.2L7.07282 12.9765L7.44051 11.5112C7.20718 11.4536 6.96872 11.3918 6.72308 11.326L6.35385 12.7985L5.45487 12.575L5.82718 11.0867C5.74797 11.0665 5.66818 11.0458 5.58781 11.0249C5.45534 10.9904 5.32128 10.9556 5.18564 10.9219L4.01436 10.6316L4.46154 9.60612C4.46154 9.60612 5.12513 9.78112 5.1159 9.76836C5.37077 9.83112 5.4841 9.66581 5.52872 9.55612L6.11743 7.20714L6.13051 7.21033L6.13059 7.21035C6.15916 7.21734 6.18657 7.22403 6.21282 7.23112C6.17641 7.21581 6.1441 7.20714 6.11897 7.20101L6.53897 5.52499C6.55026 5.33469 6.4841 5.09489 6.11949 5.00408C6.13333 4.99438 5.46564 4.84234 5.46564 4.84234L5.70513 3.88571L6.94667 4.19387L6.94564 4.19846C7.13231 4.24489 7.32461 4.28877 7.52051 4.33316L7.88974 2.86173L8.78923 3.0852L8.42769 4.52755C8.66974 4.58214 8.91282 4.63775 9.14923 4.69642L9.5082 3.26326L10.4082 3.48673L10.0395 4.95867ZM9.78718 9.88826C9.53164 10.9089 7.92568 10.4864 7.19138 10.2932L7.19129 10.2932C7.12545 10.2759 7.06662 10.2604 7.01641 10.248L7.51077 8.27653C7.57209 8.29175 7.64701 8.30848 7.73187 8.32742L7.73191 8.32743C8.49165 8.49704 10.0487 8.84465 9.78718 9.88826ZM7.88599 7.4132C8.49907 7.57555 9.83312 7.92882 10.0656 7.00255C10.3029 6.05484 9.00678 5.76862 8.37219 5.62848C8.30028 5.61259 8.23686 5.59859 8.18513 5.58571L7.73692 7.37448C7.77961 7.38503 7.82977 7.39831 7.88599 7.4132Z" fill="#889099"/>
</svg>
