<svg width="11" height="23" viewBox="0 0 11 23" fill="none" xmlns="http://www.w3.org/2000/svg">
<path d="M6.51172 0.347656V3.45312H5.31641V0.347656H6.51172ZM6.47656 19.543V22.4375H5.28125V19.543H6.47656ZM9.57031 15.793C9.57031 15.2148 9.44922 14.7148 9.20703 14.293C8.97266 13.8633 8.57422 13.4766 8.01172 13.1328C7.45703 12.7812 6.69922 12.4375 5.73828 12.1016C4.75391 11.7812 3.90234 11.418 3.18359 11.0117C2.47266 10.6055 1.92188 10.0977 1.53125 9.48828C1.14844 8.87109 0.957031 8.09766 0.957031 7.16797C0.957031 6.25391 1.15625 5.46094 1.55469 4.78906C1.96094 4.11719 2.53516 3.60156 3.27734 3.24219C4.01953 2.875 4.89062 2.69141 5.89062 2.69141C6.66406 2.69141 7.35547 2.80469 7.96484 3.03125C8.58203 3.25781 9.10156 3.59766 9.52344 4.05078C9.95312 4.49609 10.2812 5.04688 10.5078 5.70312C10.7344 6.35156 10.8477 7.10156 10.8477 7.95312H9.45312C9.45312 7.375 9.375 6.84375 9.21875 6.35938C9.07031 5.875 8.84375 5.45312 8.53906 5.09375C8.23438 4.72656 7.85938 4.44531 7.41406 4.25C6.97656 4.04688 6.46875 3.94531 5.89062 3.94531C5.08594 3.94531 4.42188 4.08984 3.89844 4.37891C3.375 4.66797 2.98828 5.05469 2.73828 5.53906C2.48828 6.02344 2.36328 6.55469 2.36328 7.13281C2.36328 7.70312 2.46875 8.20312 2.67969 8.63281C2.89062 9.0625 3.27344 9.45312 3.82812 9.80469C4.38281 10.1484 5.17969 10.4961 6.21875 10.8477C7.20312 11.168 8.04688 11.5312 8.75 11.9375C9.46094 12.3438 10.0078 12.8516 10.3906 13.4609C10.7734 14.0625 10.9648 14.832 10.9648 15.7695C10.9648 16.7148 10.75 17.5234 10.3203 18.1953C9.89062 18.8594 9.28906 19.3672 8.51562 19.7188C7.74219 20.0703 6.83984 20.2461 5.80859 20.2461C5.14453 20.2461 4.48828 20.1602 3.83984 19.9883C3.19141 19.8086 2.60547 19.5195 2.08203 19.1211C1.55859 18.7227 1.14062 18.1953 0.828125 17.5391C0.515625 16.875 0.359375 16.0586 0.359375 15.0898H1.75391C1.75391 15.8477 1.875 16.4766 2.11719 16.9766C2.35938 17.4766 2.67578 17.875 3.06641 18.1719C3.46484 18.4688 3.90234 18.6797 4.37891 18.8047C4.85547 18.9297 5.33203 18.9922 5.80859 18.9922C6.60547 18.9922 7.28125 18.8516 7.83594 18.5703C8.39844 18.2812 8.82812 17.8945 9.125 17.4102C9.42188 16.918 9.57031 16.3789 9.57031 15.793Z" fill="#22252E"/>
</svg>
