<svg width="74" height="18" viewBox="0 0 74 18" fill="none" xmlns="http://www.w3.org/2000/svg">
<path fill-rule="evenodd" clip-rule="evenodd" d="M73.1174 1.4053H71.9883C71.2658 1.4053 70.7294 1.89025 70.3136 2.48202L69.1966 4.07403C69.196 4.07469 69.196 4.07535 69.1953 4.076L66.7759 7.52202L64.678 4.53638C64.6684 4.52141 64.6633 4.50774 64.6524 4.49224L63.2393 2.48596C62.8225 1.89472 62.2808 1.41056 61.5584 1.41056H60.5117C59.7892 1.41056 59.3211 1.89406 59.7393 2.48399L61.1607 4.49408C61.1638 4.49802 61.1677 4.50196 61.1709 4.50643L65.2169 10.2186V16.6855C65.2169 17.4095 65.8084 18.0006 66.5311 18L67.0207 17.9987C67.7433 17.9982 68.3348 17.4043 68.3348 16.6802V10.2122L72.6449 4.12856C72.6583 4.11108 72.6757 4.09414 72.6884 4.076L73.8151 2.48005C74.2332 1.88894 73.84 1.4053 73.1174 1.4053Z" fill="#889099"/>
<path fill-rule="evenodd" clip-rule="evenodd" d="M25.9536 9.18091L30.0135 5.27268C30.0323 5.25586 32.8835 2.51132 32.8835 2.51132C33.3965 2.01665 32.8445 1.4053 32.1414 1.4053H30.5976C29.8948 1.4053 29.5397 1.81103 29.0276 2.30767L26.0223 5.22091C26.0197 5.22341 26.0182 5.22603 26.0153 5.22932L24.0815 7.10395V4.97837H24.0732C24.0751 4.94986 24.0815 4.922 24.0815 4.89349V2.72259C24.0815 1.99852 23.5066 1.4053 22.8037 1.4053H22.2297C21.527 1.4053 20.9518 1.99852 20.9518 2.72259V4.89349C20.9518 4.922 20.9583 4.94986 20.9601 4.97837H20.9518V16.6828C20.9518 17.4069 21.527 18 22.2297 18H22.8037C23.5066 18 24.0815 17.4069 24.0815 16.6828V11.4418L26.8366 14.2766H26.8398L29.5518 17.0699C30.0493 17.5813 30.392 18 31.095 18H32.6407C33.3435 18 33.643 17.1431 33.1455 16.6316L25.9536 9.18091Z" fill="#889099"/>
<path fill-rule="evenodd" clip-rule="evenodd" d="M56.5185 10.8052H53.4936C53.1303 10.8052 52.9456 10.531 53.0818 10.1953L54.7525 6.10041C54.8895 5.76472 55.1138 5.76472 55.2513 6.09976L56.9297 10.196C57.0672 10.531 56.8818 10.8052 56.5185 10.8052ZM62.5948 16.3574H62.6026L57.3287 3.24433H57.3261L57.0787 2.62852C56.8089 1.95568 55.9936 1.4053 55.2672 1.4053H54.743C54.0166 1.4053 53.202 1.95634 52.9341 2.62983L52.6898 3.24433H52.6809L47.427 16.288H47.4288L47.2307 16.7781C46.9589 17.4504 47.3323 18 48.0586 18H49.2345C49.9609 18 50.3024 17.4445 50.5548 16.7651L50.732 16.288H50.7391L51.801 13.4637H58.2232L58.3102 13.6905L58.3747 13.8254L59.3217 16.3574H59.3249L59.4771 16.7651C59.7303 17.4445 60.174 18 60.9011 18H61.9407C62.6678 18 63.0392 17.4509 62.7661 16.7794L62.5948 16.3574Z" fill="#889099"/>
<path fill-rule="evenodd" clip-rule="evenodd" d="M46.2486 7.63028C46.127 7.9376 45.95 8.19367 45.7127 8.40415L45.7153 8.40165L45.7133 8.40415C45.2376 8.82367 44.5292 9.05255 43.5751 9.05255H41.852C41.483 9.05255 41.1813 8.75627 41.1813 8.3939V4.70022C41.1813 4.33852 41.483 4.04171 41.852 4.04171H43.5751C44.5292 4.04171 45.2376 4.27046 45.7127 4.69116C45.9505 4.90125 46.127 5.15535 46.2486 5.46319C46.3687 5.7705 46.4313 6.12906 46.4313 6.54187C46.4313 6.95876 46.3687 7.32047 46.2486 7.63028ZM49.3598 8.75824C49.6283 8.11129 49.7608 7.3704 49.7608 6.54187C49.7608 5.71992 49.6283 4.98349 49.3598 4.34049C49.0926 3.69748 48.6885 3.14776 48.1533 2.70695C47.0907 1.83257 45.5432 1.4053 43.5751 1.4053H39.3162C38.579 1.4053 37.9752 1.99852 37.9752 2.72259V16.6828C37.9752 17.4069 38.579 18 39.3162 18H39.8404C40.5777 18 41.1813 17.4069 41.1813 16.6828V11.6888H43.5751C45.5432 11.6888 47.0907 11.265 48.1526 10.3924C48.6866 9.95412 49.0926 9.40387 49.3598 8.75824Z" fill="#889099"/>
<path fill-rule="evenodd" clip-rule="evenodd" d="M14.9997 13.6595C14.5599 14.2105 14.0566 14.613 13.4754 14.8801C12.8941 15.1472 12.2302 15.2827 11.4699 15.2827C10.7077 15.2827 10.0434 15.1472 9.45995 14.8801C8.8743 14.613 8.36887 14.2066 7.925 13.6549C7.40428 13.0119 7.03661 12.2068 6.81448 11.2571L6.60946 9.87451C6.60311 9.79147 6.5987 9.61646 6.59637 9.42845C6.59222 9.23137 6.59002 9.01235 6.59002 8.8334C6.59002 8.67981 6.59222 8.55328 6.59443 8.50086L6.75331 7.11814C6.96015 6.03696 7.35179 5.13131 7.925 4.41827L7.92254 4.42274H7.925C8.36887 3.86658 8.8743 3.46414 9.45995 3.19769C10.0434 2.93058 10.7077 2.79512 11.4699 2.79512C12.2302 2.79512 12.8941 2.93058 13.4754 3.19769C14.0566 3.46414 14.5599 3.86658 14.9997 4.41827C15.8795 5.521 16.3364 7.06953 16.3364 9.04349C16.3364 11.0121 15.8795 12.5569 14.9997 13.6595ZM17.4234 2.54102C15.938 0.904858 13.9172 0.0731792 11.4699 0.0777778C9.01142 0.0731792 6.98646 0.904858 5.49881 2.54102C4.40359 3.74019 3.71141 5.25849 3.42591 7.05205V7.05665L3.2932 8.46972V8.47878C3.28426 8.65839 3.27376 8.84181 3.27376 9.04349C3.27376 9.34095 3.28685 9.62947 3.30408 9.90946V9.91852L3.48474 11.3317V11.3362C3.79837 12.9944 4.46424 14.4121 5.49881 15.5453C6.98646 17.1729 9.01142 18.0046 11.4699 18C13.9172 18.0046 15.938 17.1729 17.4234 15.5368C18.8994 13.9129 19.6424 11.7167 19.6424 9.04349C19.6424 6.36556 18.902 4.16417 17.4234 2.54102Z" fill="#889099"/>
<path fill-rule="evenodd" clip-rule="evenodd" d="M11.4267 8.04311H0.654724L1.66817 6.05194H12.4402L11.4267 8.04311Z" fill="#889099"/>
<path fill-rule="evenodd" clip-rule="evenodd" d="M9.4085 12.026H0L1.06749 10.0345H10.476L9.4085 12.026Z" fill="#889099"/>
</svg>
